<?xml version="1.0" encoding="UTF-8"?>
<svg xmlns="http://www.w3.org/2000/svg" width="48.0" height="48.0" viewBox="0 0 1024.0 1024.0">
  <path d="M 657 121 C 521 121 411 231 411 367 C 411 396 416 425 425 454 L 121 758 L 121 903 L 266 903 L 266 816 L 353 816 L 353 729 L 440 729 L 570 599 C 596 608 625 613 657 613 C 793 613 903 503 903 367 C 903 231 793 121 657 121 Z M 709 402 C 660 402 622 364 622 315 C 622 265 660 228 709 228 C 759 228 796 265 796 315 C 796 364 759 402 709 402 Z" fill="#942E2E" />
</svg>
