<svg viewBox="0 0 1024 1024" xmlns="http://www.w3.org/2000/svg" width="24" height="24"><path d="M528 960l-0.352-10.272c12.8-0.448 25.6-1.44 38.08-3.008l1.248 10.208c-12.992 1.536-26.176 2.56-38.976 3.072z m-39.104-0.352c-12.8-0.672-26.048-1.952-38.912-3.776l1.44-10.176c12.576 1.76 25.376 3.008 38.016 3.68z m116.544-9.248l-2.144-10.048c12.384-2.656 24.832-5.888 36.96-9.6l3.008 9.824c-12.416 3.776-25.152 7.104-37.824 9.824z m-194.016-1.696c-12.8-2.912-25.312-6.4-37.664-10.432l3.2-9.792c12.064 3.904 24.448 7.36 36.8 10.208z m268.8-21.28l-3.872-9.6c11.648-4.736 23.296-10.048 34.56-15.776h0.192l4.64 9.152c-11.744 5.952-23.712 11.392-35.648 16.224z m-342.976-2.816a438.176 438.176 0 0 1-35.2-16.768l4.8-9.088c11.2 5.952 22.816 11.456 34.496 16.384z m412.576-32.672l-5.44-8.736c10.784-6.72 21.376-13.984 31.488-21.6l6.176 8.224c-10.496 7.776-21.344 15.232-32.352 22.112z m-481.696-3.904c-10.912-7.04-21.632-14.688-32-22.656l6.4-8.096c9.984 7.776 20.48 15.232 31.104 22.112z m544-43.072l-6.88-7.648c9.408-8.48 18.56-17.472 27.232-26.752l7.52 7.008c-8.896 9.504-18.272 18.72-27.904 27.232z m-605.6-4.896c-9.6-8.832-18.72-18.208-27.392-27.84l7.648-6.88c8.48 9.408 17.504 18.56 26.752 27.2z m658.784-52.224l-8.096-6.4c7.808-9.984 15.232-20.448 22.144-31.104l8.64 5.6c-7.072 10.976-14.72 21.664-22.688 31.904zM154.24 782.048a455.584 455.584 0 0 1-22.144-32.224l8.704-5.44c6.72 10.784 14.016 21.376 21.632 31.488z m753.504-59.744l-9.088-4.832c5.952-11.2 11.456-22.816 16.416-34.496l9.6 4a477.12 477.12 0 0 1-16.896 35.328z m-794.912-6.4l-0.192-0.384a418.4 418.4 0 0 1-16-35.2l9.6-3.872c4.704 11.584 9.984 23.168 15.712 34.368l0.192 0.384z m825.408-65.504l-9.792-3.2c3.904-12.064 7.36-24.448 10.208-36.8l10.016 2.304c-2.912 12.672-6.4 25.344-10.432 37.696z m-854.784-6.976c-3.84-12.416-7.136-25.152-9.856-37.824l10.048-2.144c2.656 12.384 5.888 24.832 9.6 36.96z m872.384-69.152l-10.176-1.44c1.792-12.576 3.008-25.376 3.68-38.016l10.272 0.544a440.96 440.96 0 0 1-3.776 38.912zM67.2 567.04c-1.6-12.8-2.624-25.984-3.2-38.976l10.272-0.352c0.448 12.8 1.472 25.6 3.008 38.08z m882.624-70.4c-0.448-12.8-1.44-25.6-2.976-38.08l10.208-1.248c1.568 12.8 2.624 26.016 3.2 38.976zM74.592 489.6l-10.272-0.64c0.672-12.96 1.952-26.048 3.744-38.912l10.176 1.44c-1.76 12.512-2.976 25.312-3.648 38.112z m865.824-68.608a447.584 447.584 0 0 0-9.6-36.96l9.984-3.232c3.808 12.416 7.136 25.152 9.824 37.856z m-855.2-7.104l-10.016-2.304c2.912-12.8 6.4-25.312 10.432-37.664l9.792 3.2c-3.936 12.032-7.36 24.416-10.208 36.768z m832.832-65.984a404.448 404.448 0 0 0-16-34.752l9.152-4.672c5.92 11.616 11.36 23.552 16.224 35.552zM108.8 341.28l-9.6-4c5.056-11.968 10.688-23.84 16.768-35.2l9.088 4.8c-5.888 11.104-11.392 22.72-16.256 34.4z m35.616-67.456l-8.64-5.568c7.04-10.912 14.656-21.632 22.624-32l8.128 6.4c-7.776 10.144-15.232 20.512-22.112 31.168z m46.848-60.192l-7.52-7.008c8.832-9.6 18.208-18.72 27.84-27.424l6.88 7.648c-9.408 8.352-18.56 17.504-27.2 26.784z m56.64-51.2l-6.176-8.224c10.336-7.808 21.184-15.264 32.224-22.144l5.44 8.704c-10.784 6.88-21.376 14.144-31.488 21.76z m502.56-17.856l-0.576-0.384 5.6-8.64 0.576 0.352z m-33.504-19.712a430.08 430.08 0 0 0-34.496-16.384l4-9.6c11.968 5.056 23.84 10.688 35.2 16.768zM312.608 122.08l-4.672-9.152 0.576-0.288c11.392-5.792 23.168-11.168 34.976-16l3.872 9.6c-11.552 4.704-23.04 9.952-34.176 15.616z m334.08-26.816a429.248 429.248 0 0 0-36.832-10.144l2.304-10.016c12.8 2.912 25.344 6.4 37.696 10.4z m-263.328-1.92l-3.008-9.824a456 456 0 0 1 37.824-9.856l2.144 10.048a444.48 444.48 0 0 0-36.96 9.632z m188.8-15.136a446.496 446.496 0 0 0-38.016-3.616l0.512-10.272c12.96 0.672 26.048 1.888 38.912 3.68z m-114.304-0.832l-1.28-10.208c12.8-1.6 25.984-2.656 38.976-3.2l0.384 10.272c-12.544 0.544-25.376 1.568-37.952 3.136z" fill="#808080"></path><path d="M512 511.936m-342.656 0a342.656 342.656 0 1 0 685.312 0 342.656 342.656 0 1 0-685.312 0Z" fill="#000080"></path><path d="M653.92 369.984m-100.352 0a100.352 100.352 0 1 0 200.704 0 100.352 100.352 0 1 0-200.704 0Z" fill="#FFFFFF"></path><path d="M854.656 169.28m-100.384 0a100.384 100.384 0 1 0 200.768 0 100.384 100.384 0 1 0-200.768 0Z" fill="#000080"></path><path d="M419.2 683.264v-25.28H308.128v-199.552h-28.8v224.832H419.2M573.312 683.264V521.6h-25.6v89.12c0 32.992-17.28 54.592-44.096 54.592A30.4 30.4 0 0 1 470.4 633.6v-112h-25.6v122.144c0 26.816 20.032 44.096 51.488 44.096a59.616 59.616 0 0 0 53.984-29.6v24.992h23.136M761.312 682.656v-19.424a21.248 21.248 0 0 1-5.536 0.608c-8.928 0-13.888-4.64-13.888-12.8v-89.888c0-28.8-20.96-44.096-60.8-44.096-39.168 0-63.232 15.104-64.768 52.416h25.92c2.144-19.744 13.888-28.8 37.92-28.8 23.136 0 36.096 8.64 36.096 24.064v6.784c0 10.784-6.4 15.424-26.816 17.888a184.416 184.416 0 0 0-51.808 9.856 42.464 42.464 0 0 0-28.384 41.952c0 29.312 20.352 46.56 53.056 46.56a75.616 75.616 0 0 0 54.88-23.744 27.36 27.36 0 0 0 26.528 21.28 62.944 62.944 0 0 0 17.568-2.784m-45.024-55.2a43.712 43.712 0 0 1-48.416 37.92c-20.032 0-31.776-7.104-31.776-24.672 0-16.96 11.424-24.352 38.848-28.384a128 128 0 0 0 41.312-8.928v24.064" fill="#FFFFFF"></path></svg>